<?xml version="1.0"?>
<svg xmlns="http://www.w3.org/2000/svg" id="line" width="512" height="512" viewBox="0 0 64 64"><path d="M46.992,62.124,49.9,38.846A2.994,2.994,0,0,0,49,33H27a2.993,2.993,0,0,0-.9,5.846l2.91,23.278a1,1,0,0,0,1.984-.248L30.633,59h2.241L33,62.042a1,1,0,0,0,2-.084L34.876,59H37v3a1,1,0,0,0,2,0V59h2.124L41,61.958a1,1,0,0,0,2,.084L43.126,59h2.241l-.359,2.876A1,1,0,0,0,46.992,62.124ZM28.133,39h3.908l.125,3H28.508Zm1,8-.375-3h3.491l.125,3Zm.625,5-.375-3h3.075l.125,3Zm.625,5-.375-3h2.658l.125,3ZM37,57H34.792l-.125-3H37Zm0-5H34.584l-.125-3H37Zm0-5H34.376l-.125-3H37Zm0-5H34.167l-.125-3H37Zm4.208,15H39V54h2.333Zm.208-5H39V49h2.541Zm.208-5H39V44h2.749Zm.209-5H39V39h2.958Zm2.126-3h3.908l-.375,3H43.834Zm-.208,5h3.491l-.375,3H43.626Zm-.209,5h3.075l-.375,3H43.417Zm-.333,8,.125-3h2.658l-.375,3ZM45,27v4H31V27Zm8.89,10A4.991,4.991,0,0,0,49,31H47V27a2,2,0,0,0-2-2H31a2,2,0,0,0-2,2v4H27a4.992,4.992,0,0,0-4.89,6H21a3,3,0,0,1-3-3V16a3,3,0,0,1,3-3H55a3,3,0,0,1,3,3V34a3,3,0,0,1-3,3Z" style="fill:#c4a2fc"/><path d="M43,22A20.994,20.994,0,1,0,1.372,25.862v.007A20.993,20.993,0,0,0,43,22ZM34.73,7.936a18.927,18.927,0,0,1,6.221,13.106A20.764,20.764,0,0,0,30.3,24.607q-1.167-1.446-2.472-2.816A39.387,39.387,0,0,0,34.73,7.936ZM26.844,3.65a18.907,18.907,0,0,1,6.165,2.893A36.885,36.885,0,0,1,26.4,20.362q-1.44-1.378-3.018-2.643A20.582,20.582,0,0,0,26.844,3.65Zm-2.078-.425A18.585,18.585,0,0,1,21.8,16.5,38.459,38.459,0,0,0,7.423,9.834,18.865,18.865,0,0,1,24.766,3.225ZM6.112,11.61a36.06,36.06,0,0,1,14.5,6.5A18.73,18.73,0,0,1,3.225,24.766,18.718,18.718,0,0,1,6.112,11.61ZM3.65,26.844A20.723,20.723,0,0,0,22.193,19.33q1.53,1.23,2.96,2.607A40.748,40.748,0,0,1,7.693,34.462,18.926,18.926,0,0,1,3.65,26.844ZM21.03,40.951a18.9,18.9,0,0,1-11.8-4.926A42.9,42.9,0,0,0,26.562,23.367q1.105,1.171,2.124,2.427A20.768,20.768,0,0,0,21.03,40.951Zm2,0a18.793,18.793,0,0,1,6.876-13.57,38.7,38.7,0,0,1,4.853,8.66A18.9,18.9,0,0,1,23.03,40.948Zm8.5-14.764a18.769,18.769,0,0,1,9.415-3.142A18.9,18.9,0,0,1,36.3,34.473,40.983,40.983,0,0,0,31.532,26.184ZM23,46v4a1,1,0,0,1-2,0V46A1,1,0,0,1,23,46ZM11,42v4a1,1,0,0,1-2,0V42A1,1,0,0,1,11,42Zm24,0v4a1,1,0,0,1-2,0V42A1,1,0,0,1,35,42Zm-6,3v4a1,1,0,0,1-2,0V45A1,1,0,0,1,29,45ZM17,45v4a1,1,0,0,1-2,0V45A1,1,0,0,1,17,45Z" style="fill:#151a6a"/></svg>
